<?xml version="1.0" encoding="UTF-8"?>
<svg width="38" height="38" viewBox="17 50 42 42" fill="none" xmlns="http://www.w3.org/2000/svg" aria-hidden="true">
  <circle cx="38" cy="69" r="19" fill="#F79780"/>
  <mask id="kalash-avatar-mask" style="mask-type:alpha" maskUnits="userSpaceOnUse" x="19" y="50" width="38" height="38">
    <circle cx="38" cy="69" r="19" fill="#01656B"/>
  </mask>
  <g mask="url(#kalash-avatar-mask)">
    <rect x="31.5225" y="53.8857" width="4.31818" height="12.9545" rx="2.15909" fill="white"/>
    <rect x="39.7275" y="53.8857" width="4.31818" height="12.9545" rx="2.15909" fill="white"/>
    <rect x="32.8184" y="55.1816" width="1.72727" height="11.6591" rx="0.863636" fill="#C34B29"/>
    <rect x="41.0225" y="55.1816" width="1.72727" height="11.6591" rx="0.863636" fill="#C34B29"/>
    <rect x="31.9541" y="72.8857" width="12.5227" height="12.9545" fill="white"/>
    <path d="M17.7187 88.1795C17.7188 80.4657 24.0027 74.2288 31.7162 74.2866C31.8661 74.2877 32.0057 74.3573 32.1024 74.4719C32.6762 75.1521 34.876 77.4906 37.9996 77.4906C41.3519 77.4906 43.7356 75.0346 44.3315 74.3544C44.4265 74.2461 44.5611 74.1816 44.7052 74.1816C52.2027 74.1816 58.2805 80.2595 58.2805 87.757V89.0794H17.7187L17.7187 88.1795Z" fill="#6052A9"/>
  </g>
  <path d="M26.7725 67.9194C26.7725 64.6998 29.3824 62.0898 32.602 62.0898H43.3975C46.617 62.0898 49.227 64.6998 49.227 67.9194C49.227 71.139 46.617 73.7489 43.3975 73.7489H32.602C29.3824 73.7489 26.7725 71.139 26.7725 67.9194Z" fill="white"/>
  <path d="M35.8398 62.0898H39.7262V63.7092C39.7262 64.2458 39.2912 64.6808 38.7546 64.6808L38.4308 63.8171L37.783 64.6808H36.8398C36.2876 64.6808 35.8398 64.233 35.8398 63.6808V62.0898Z" fill="#232326"/>
  <path d="M39.1779 69.333C38.7216 69.9501 37.7395 70.0963 37.0879 69.333" stroke="#232326" stroke-width="2.16381" stroke-linecap="round" stroke-linejoin="round"/>
  <circle cx="42.0542" cy="68.3482" r="0.644068" fill="#232326"/>
  <circle cx="34.3257" cy="68.3482" r="0.644068" fill="#232326"/>
</svg>
