<svg width="87" height="109" viewBox="0 0 87 109" fill="none" xmlns="http://www.w3.org/2000/svg">
<path d="M76.9779 109H74.2579C73.8099 109 73.5859 108.776 73.5859 108.328V87.1759C73.5859 86.7279 73.8099 86.5039 74.2579 86.5039H76.9779C77.4259 86.5039 77.6499 86.7279 77.6499 87.1759V94.4079H77.7779C78.2473 93.2559 79.2926 92.6799 80.9139 92.6799H81.9379C85.2873 92.6799 86.9619 94.4186 86.9619 97.8959V108.328C86.9619 108.776 86.7273 109 86.2579 109H83.5699C83.1219 109 82.8979 108.776 82.8979 108.328V98.0879C82.8979 97.4052 82.7486 96.9252 82.4499 96.6479C82.1726 96.3492 81.6926 96.1999 81.0099 96.1999H79.8579C78.3859 96.1999 77.6499 97.0106 77.6499 98.6319V108.328C77.6499 108.776 77.4259 109 76.9779 109Z" fill="#DAD09A"/>
<path d="M65.5308 109H59.4508C59.0242 109 58.8108 108.776 58.8108 108.328V106.28C58.8108 106.045 58.8535 105.885 58.9388 105.8C59.0242 105.693 59.1948 105.64 59.4508 105.64H64.7948C65.8402 105.64 66.3628 105.32 66.3628 104.68V104.52C66.3628 104.008 65.9255 103.517 65.0508 103.048L61.8828 101.288C60.7948 100.733 59.9948 100.136 59.4828 99.4957C58.9708 98.8557 58.7148 98.0344 58.7148 97.0317C58.7148 95.5384 59.1095 94.4397 59.8988 93.7357C60.6882 93.0317 61.9255 92.6797 63.6108 92.6797H68.9548C69.3815 92.6797 69.5948 92.9037 69.5948 93.3517V95.4317C69.5948 95.6664 69.5522 95.837 69.4668 95.9437C69.3815 96.029 69.2108 96.0717 68.9548 96.0717H64.5068C63.4615 96.0717 62.9388 96.3384 62.9388 96.8717V97.0317C62.9388 97.501 63.3975 97.981 64.3148 98.4717L67.5468 100.392C68.6562 100.989 69.4348 101.608 69.8828 102.248C70.3308 102.866 70.5548 103.688 70.5548 104.712C70.5548 107.57 68.8802 109 65.5308 109Z" fill="#DAD09A"/>
<path d="M48.3205 109H47.5525C45.8671 109 44.5658 108.552 43.6485 107.656C42.7311 106.76 42.2725 105.469 42.2725 103.784V97.8957C42.2725 96.2104 42.7311 94.9197 43.6485 94.0237C44.5658 93.1277 45.8671 92.6797 47.5525 92.6797H54.9445C55.4138 92.6797 55.6485 92.9037 55.6485 93.3517V108.328C55.6485 108.776 55.4138 109 54.9445 109H52.2565C51.8085 109 51.5845 108.776 51.5845 108.328V107.272H51.4565C51.2218 107.848 50.8058 108.285 50.2085 108.584C49.6111 108.861 48.9818 109 48.3205 109ZM51.5845 103.048V96.5517C51.5845 96.317 51.4565 96.1997 51.2005 96.1997H48.1925C47.5098 96.1997 47.0298 96.349 46.7525 96.6477C46.4751 96.925 46.3365 97.405 46.3365 98.0877V103.592C46.3365 104.274 46.4751 104.765 46.7525 105.064C47.0298 105.341 47.5098 105.48 48.1925 105.48H49.3765C50.8485 105.48 51.5845 104.669 51.5845 103.048Z" fill="#DAD09A"/>
<path d="M38.0385 109H35.3185C34.8705 109 34.6465 108.776 34.6465 108.328V87.1759C34.6465 86.7279 34.8705 86.5039 35.3185 86.5039H38.0385C38.4865 86.5039 38.7105 86.7279 38.7105 87.1759V108.328C38.7105 108.776 38.4865 109 38.0385 109Z" fill="#DAD09A"/>
<path d="M23.4513 109H22.6833C20.998 109 19.6967 108.552 18.7793 107.656C17.862 106.76 17.4033 105.469 17.4033 103.784V97.8957C17.4033 96.2104 17.862 94.9197 18.7793 94.0237C19.6967 93.1277 20.998 92.6797 22.6833 92.6797H30.0753C30.5447 92.6797 30.7793 92.9037 30.7793 93.3517V108.328C30.7793 108.776 30.5447 109 30.0753 109H27.3873C26.9393 109 26.7153 108.776 26.7153 108.328V107.272H26.5873C26.3527 107.848 25.9367 108.285 25.3393 108.584C24.742 108.861 24.1127 109 23.4513 109ZM26.7153 103.048V96.5517C26.7153 96.317 26.5873 96.1997 26.3313 96.1997H23.3233C22.6407 96.1997 22.1607 96.349 21.8833 96.6477C21.606 96.925 21.4673 97.405 21.4673 98.0877V103.592C21.4673 104.274 21.606 104.765 21.8833 105.064C22.1607 105.341 22.6407 105.48 23.3233 105.48H24.5073C25.9793 105.48 26.7153 104.669 26.7153 103.048Z" fill="#DAD09A"/>
<path d="M3.392 109H0.672C0.224 109 0 108.776 0 108.328V89.0958C0 88.6478 0.224 88.4238 0.672 88.4238H3.392C3.84 88.4238 4.064 88.6478 4.064 89.0958V98.2158H4.128C4.29867 97.7038 4.62933 97.0425 5.12 96.2318L9.984 89.0958C10.2613 88.6478 10.6773 88.4238 11.232 88.4238H14.368C14.6027 88.4238 14.7413 88.4985 14.784 88.6478C14.848 88.7758 14.7947 88.9465 14.624 89.1598L8.544 97.5758L15.328 108.2C15.4773 108.456 15.4987 108.658 15.392 108.808C15.3067 108.936 15.1147 109 14.816 109H12.48C11.7333 109 11.232 108.776 10.976 108.328L6.08 100.488L4.064 102.856V108.328C4.064 108.776 3.84 109 3.392 109Z" fill="#DAD09A"/>
<path d="M64.8533 41.6V33.2C72.1165 33.2 72.748 41.6 72.748 45.6H68.8007C68.8007 42.4 66.1691 41.6 64.8533 41.6Z" fill="#DAD09A"/>
<path d="M64.8533 41.6V33.2C72.1165 33.2 72.748 41.6 72.748 45.6H68.8007C68.8007 42.4 66.1691 41.6 64.8533 41.6Z" fill="#DAD09A"/>
<path d="M20.6428 41.6V33.2C13.3796 33.2 12.748 41.6 12.748 45.6H16.6954C16.6954 42.4 19.327 41.6 20.6428 41.6Z" fill="#DAD09A"/>
<path d="M22.2217 50.8C22.2217 49.9163 22.9287 49.2 23.8007 49.2H61.6954C62.5674 49.2 63.2744 49.9163 63.2744 50.8V57.2C63.2744 64.2692 57.619 70 50.6428 70H34.8533C27.8771 70 22.2217 64.2692 22.2217 57.2V50.8Z" fill="#DAD09A"/>
<path d="M24.5902 42.8C24.5902 41.9163 25.2971 41.2 26.1691 41.2H59.327C60.199 41.2 60.9059 41.9163 60.9059 42.8V44.4C60.9059 45.2837 60.199 46 59.327 46H26.1691C25.2971 46 24.5902 45.2837 24.5902 44.4V42.8Z" fill="#DAD09A"/>
<path d="M38.8007 26C38.8007 23.7909 40.568 18 42.748 18C44.9281 18 46.6954 23.7909 46.6954 26V38H38.8007V26Z" fill="#DAD09A"/>
<path d="M58.5375 31.2V38H50.6428V29.2C50.6428 23.76 55.6428 22.1333 58.1428 22H64.8533V26C59.8007 26 58.5375 29.2 58.5375 31.2Z" fill="#DAD09A"/>
<path d="M26.9586 31.2V38H34.8533V29.2C34.8533 23.76 29.8533 22.1333 27.3533 22H20.6428V26C25.6954 26 26.9586 29.2 26.9586 31.2Z" fill="#DAD09A"/>
<path d="M35.8992 20.5531C36.9366 18.1005 38.5892 14.1934 42.748 11.6C46.9069 14.1934 48.5595 18.1005 49.5969 20.5531C49.8395 21.1268 50.0485 21.6209 50.248 22C52.1428 19.76 54.9849 18.1333 56.1691 17.6C53.9586 8 46.3007 1.86667 42.748 0C39.1954 1.86667 31.5375 8 29.327 17.6C30.5112 18.1333 33.3533 19.76 35.248 22C35.4476 21.6209 35.6566 21.1268 35.8992 20.5531Z" fill="#DAD09A"/>
</svg>
