<svg xmlns="http://www.w3.org/2000/svg" viewBox="0 0 320 180" fill="none">
  <rect width="320" height="180" fill="#E5E7EB"/>
  <rect y="110" width="320" height="70" fill="#D1D5DB"/>
  <rect x="20" y="118" width="72" height="8" rx="2" fill="#9CA3AF"/>
  <rect x="20" y="132" width="56" height="36" rx="4" fill="#6B7280"/>
  <rect x="88" y="118" width="72" height="8" rx="2" fill="#9CA3AF"/>
  <rect x="88" y="132" width="56" height="36" rx="4" fill="#4B5563"/>
  <rect x="156" y="118" width="72" height="8" rx="2" fill="#9CA3AF"/>
  <rect x="156" y="132" width="56" height="36" rx="4" fill="#6B7280"/>
  <rect x="224" y="118" width="72" height="8" rx="2" fill="#9CA3AF"/>
  <rect x="224" y="132" width="56" height="36" rx="4" fill="#4B5563"/>
  <rect x="0" y="0" width="320" height="90" fill="#F3F4F6"/>
  <rect x="40" y="24" width="120" height="52" rx="3" fill="#FFFFFF" opacity="0.7"/>
  <rect x="180" y="32" width="100" height="44" rx="3" fill="#FFFFFF" opacity="0.55"/>
  <circle cx="260" cy="48" r="28" fill="#9CA3AF" opacity="0.35"/>
</svg>
