<svg width="119" height="167" viewBox="0 0 119 167" fill="none" xmlns="http://www.w3.org/2000/svg">
<g filter="url(#filter0_d_1707_7658)">
<path d="M17 95.5L7.00001 95.5C5.34315 95.5 4.00001 96.8432 4.00001 98.5L4.00001 114.5C4.00001 116.157 5.34315 117.5 7.00001 117.5L17 117.5L17 95.5Z" fill="white"/>
<path d="M7.00001 96C5.6193 96 4.50001 97.1193 4.50001 98.5L4.50001 114.5C4.50001 115.881 5.6193 117 7.00001 117L16.5 117L16.5 96L7.00001 96Z" stroke="#919EAB" stroke-opacity="0.6"/>
<rect width="4" height="18" rx="2" transform="matrix(-1 3.17865e-08 3.17865e-08 1 4.00001 97.5)" fill="white"/>
<rect x="-0.5" y="0.5" width="3" height="17" rx="1.5" transform="matrix(-1 3.17865e-08 3.17865e-08 1 3.00001 97.5)" stroke="#919EAB" stroke-opacity="0.6"/>
<path d="M17 47.5L7.00001 47.5C5.34315 47.5 4.00001 48.8432 4.00001 50.5L4.00001 66.5C4.00001 68.1569 5.34315 69.5 7.00001 69.5L17 69.5L17 47.5Z" fill="white"/>
<path d="M7.00001 48C5.6193 48 4.50001 49.1193 4.50001 50.5L4.50001 66.5C4.50001 67.8807 5.6193 69 7.00001 69L16.5 69L16.5 48L7.00001 48Z" stroke="#919EAB" stroke-opacity="0.6"/>
<rect width="4" height="18" rx="2" transform="matrix(-1 3.17865e-08 3.17865e-08 1 4.00001 49.5)" fill="white"/>
<rect x="-0.5" y="0.5" width="3" height="17" rx="1.5" transform="matrix(-1 3.17865e-08 3.17865e-08 1 3.00001 49.5)" stroke="#919EAB" stroke-opacity="0.6"/>
<path d="M48.5 148L48.5 158C48.5 159.657 49.8432 161 51.5 161L67.5 161C69.1569 161 70.5 159.657 70.5 158L70.5 148L48.5 148Z" fill="white"/>
<path d="M49 158C49 159.381 50.1193 160.5 51.5 160.5L67.5 160.5C68.8807 160.5 70 159.381 70 158L70 148.5L49 148.5L49 158Z" stroke="#919EAB" stroke-opacity="0.6"/>
<rect width="4" height="18" rx="2" transform="matrix(4.37114e-08 1 1 -4.37114e-08 50.5 161)" fill="white"/>
<rect x="0.5" y="0.5" width="3" height="17" rx="1.5" transform="matrix(4.37114e-08 1 1 -4.37114e-08 50.5 161)" stroke="#919EAB" stroke-opacity="0.6"/>
<rect x="17" y="148" width="131" height="85" rx="8" transform="rotate(-90 17 148)" fill="white"/>
<rect x="17.5" y="147.5" width="130" height="84" rx="7.5" transform="rotate(-90 17.5 147.5)" stroke="#919EAB" stroke-opacity="0.6"/>
<path d="M48.5 17L48.5 7.00001C48.5 5.34315 49.8432 4.00001 51.5 4.00001L67.5 4C69.1569 4 70.5 5.34315 70.5 7L70.5 17L48.5 17Z" fill="white"/>
<path d="M49 7.00001C49 5.61929 50.1193 4.50001 51.5 4.50001L67.5 4.5C68.8807 4.5 70 5.61929 70 7L70 16.5L49 16.5L49 7.00001Z" stroke="#919EAB" stroke-opacity="0.6"/>
<rect x="50.5" y="4.00001" width="4" height="18" rx="2" transform="rotate(-90 50.5 4.00001)" fill="white"/>
<rect x="51" y="3.50001" width="3" height="17" rx="1.5" transform="rotate(-90 51 3.50001)" stroke="#919EAB" stroke-opacity="0.6"/>
<path d="M102 117.5L112 117.5C113.657 117.5 115 116.157 115 114.5L115 98.5C115 96.8432 113.657 95.5 112 95.5L102 95.5L102 117.5Z" fill="white"/>
<path d="M112 117C113.381 117 114.5 115.881 114.5 114.5L114.5 98.5C114.5 97.1193 113.381 96 112 96L102.5 96L102.5 117L112 117Z" stroke="#919EAB" stroke-opacity="0.6"/>
<rect width="4" height="18" rx="2" transform="matrix(1 5.56363e-08 5.56363e-08 -1 115 115.5)" fill="white"/>
<rect x="0.5" y="-0.5" width="3" height="17" rx="1.5" transform="matrix(1 5.56363e-08 5.56363e-08 -1 115 114.5)" stroke="#919EAB" stroke-opacity="0.6"/>
<path d="M102 69.5L112 69.5C113.657 69.5 115 68.1569 115 66.5L115 50.5C115 48.8432 113.657 47.5 112 47.5L102 47.5L102 69.5Z" fill="white"/>
<path d="M112 69C113.381 69 114.5 67.8807 114.5 66.5L114.5 50.5C114.5 49.1193 113.381 48 112 48L102.5 48L102.5 69L112 69Z" stroke="#919EAB" stroke-opacity="0.6"/>
<rect width="4" height="18" rx="2" transform="matrix(1 5.56363e-08 5.56363e-08 -1 115 67.5)" fill="white"/>
<rect x="0.5" y="-0.5" width="3" height="17" rx="1.5" transform="matrix(1 5.56363e-08 5.56363e-08 -1 115 66.5)" stroke="#919EAB" stroke-opacity="0.6"/>
</g>
<defs>
<filter id="filter0_d_1707_7658" x="7.21238e-06" y="5.20165e-06" width="119" height="167" filterUnits="userSpaceOnUse" color-interpolation-filters="sRGB">
<feFlood flood-opacity="0" result="BackgroundImageFix"/>
<feColorMatrix in="SourceAlpha" type="matrix" values="0 0 0 0 0 0 0 0 0 0 0 0 0 0 0 0 0 0 127 0" result="hardAlpha"/>
<feOffset dy="2"/>
<feComposite in2="hardAlpha" operator="out"/>
<feColorMatrix type="matrix" values="0 0 0 0 0.129412 0 0 0 0 0.168627 0 0 0 0 0.211765 0 0 0 0.15 0"/>
<feBlend mode="normal" in2="BackgroundImageFix" result="effect1_dropShadow_1707_7658"/>
<feBlend mode="normal" in="SourceGraphic" in2="effect1_dropShadow_1707_7658" result="shape"/>
</filter>
</defs>
</svg>
