<svg width="132" height="80" viewBox="0 0 132 80" fill="none" xmlns="http://www.w3.org/2000/svg">
<g filter="url(#filter0_d)">
<rect x="24" width="42" height="80" rx="3" fill="white"/>
<rect x="24.5" y="0.5" width="41" height="79" rx="2.5" stroke="#919EAB" stroke-opacity="0.6"/>
<rect x="66" width="42" height="80" rx="3" fill="white"/>
<rect x="66.5" y="0.5" width="41" height="79" rx="2.5" stroke="#919EAB" stroke-opacity="0.6"/>
<path d="M108 26H122C125.314 26 128 28.6863 128 32V48C128 51.3137 125.314 54 122 54H108V26Z" fill="white"/>
<path d="M122 26.5C125.038 26.5 127.5 28.9624 127.5 32V48C127.5 51.0376 125.038 53.5 122 53.5H108.5V26.5H122Z" stroke="#919EAB" stroke-opacity="0.6"/>
<rect x="128" y="31" width="4" height="18" rx="2" fill="white"/>
<rect x="128.5" y="31.5" width="3" height="17" rx="1.5" stroke="#919EAB" stroke-opacity="0.6"/>
<path d="M24 26H10C6.68629 26 4 28.6863 4 32V48C4 51.3137 6.68629 54 10 54H24V26Z" fill="white"/>
<path d="M10 26.5C6.96243 26.5 4.5 28.9624 4.5 32V48C4.5 51.0376 6.96243 53.5 10 53.5H23.5V26.5H10Z" stroke="#919EAB" stroke-opacity="0.6"/>
<rect width="4" height="18" rx="2" transform="matrix(-1 0 0 1 4 31)" fill="white"/>
<rect x="-0.5" y="0.5" width="3" height="17" rx="1.5" transform="matrix(-1 0 0 1 3 31)" stroke="#919EAB" stroke-opacity="0.6"/>
</g>
<defs>
<filter id="filter0_d" x="0" y="0" width="132" height="82" filterUnits="userSpaceOnUse" color-interpolation-filters="sRGB">
<feFlood flood-opacity="0" result="BackgroundImageFix"/>
<feColorMatrix in="SourceAlpha" type="matrix" values="0 0 0 0 0 0 0 0 0 0 0 0 0 0 0 0 0 0 127 0" result="hardAlpha"/>
<feOffset dy="2"/>
<feComposite in2="hardAlpha" operator="out"/>
<feColorMatrix type="matrix" values="0 0 0 0 0.129412 0 0 0 0 0.168627 0 0 0 0 0.211765 0 0 0 0.15 0"/>
<feBlend mode="normal" in2="BackgroundImageFix" result="effect1_dropShadow"/>
<feBlend mode="normal" in="SourceGraphic" in2="effect1_dropShadow" result="shape"/>
</filter>
</defs>
</svg>
