<svg width="132" height="322" viewBox="0 0 132 322" fill="none" xmlns="http://www.w3.org/2000/svg">
<g filter="url(#filter0_d_1707_7584)">
<rect x="24" width="42" height="80" rx="3" fill="white"/>
<rect x="24.5" y="0.5" width="41" height="79" rx="2.5" stroke="#919EAB" stroke-opacity="0.6"/>
<rect x="66" width="42" height="80" rx="3" fill="white"/>
<rect x="66.5" y="0.5" width="41" height="79" rx="2.5" stroke="#919EAB" stroke-opacity="0.6"/>
<path d="M108 26H122C125.314 26 128 28.6863 128 32V48C128 51.3137 125.314 54 122 54H108V26Z" fill="white"/>
<path d="M122 26.5C125.038 26.5 127.5 28.9624 127.5 32V48C127.5 51.0376 125.038 53.5 122 53.5H108.5V26.5H122Z" stroke="#919EAB" stroke-opacity="0.6"/>
<rect x="128" y="31" width="4" height="18" rx="2" fill="white"/>
<rect x="128.5" y="31.5" width="3" height="17" rx="1.5" stroke="#919EAB" stroke-opacity="0.6"/>
<path d="M24 26H10C6.68629 26 4 28.6863 4 32V48C4 51.3137 6.68629 54 10 54H24V26Z" fill="white"/>
<path d="M10 26.5C6.96243 26.5 4.5 28.9624 4.5 32V48C4.5 51.0376 6.96243 53.5 10 53.5H23.5V26.5H10Z" stroke="#919EAB" stroke-opacity="0.6"/>
<rect width="4" height="18" rx="2" transform="matrix(-1 0 0 1 4 31)" fill="white"/>
<rect x="-0.5" y="0.5" width="3" height="17" rx="1.5" transform="matrix(-1 0 0 1 3 31)" stroke="#919EAB" stroke-opacity="0.6"/>
<rect x="24" y="80" width="42" height="80" rx="3" fill="white"/>
<rect x="24.5" y="80.5" width="41" height="79" rx="2.5" stroke="#919EAB" stroke-opacity="0.6"/>
<rect x="66" y="80" width="42" height="80" rx="3" fill="white"/>
<rect x="66.5" y="80.5" width="41" height="79" rx="2.5" stroke="#919EAB" stroke-opacity="0.6"/>
<path d="M108 106H122C125.314 106 128 108.686 128 112V128C128 131.314 125.314 134 122 134H108V106Z" fill="white"/>
<path d="M122 106.5C125.038 106.5 127.5 108.962 127.5 112V128C127.5 131.038 125.038 133.5 122 133.5H108.5V106.5H122Z" stroke="#919EAB" stroke-opacity="0.6"/>
<rect x="128" y="111" width="4" height="18" rx="2" fill="white"/>
<rect x="128.5" y="111.5" width="3" height="17" rx="1.5" stroke="#919EAB" stroke-opacity="0.6"/>
<path d="M24 106H10C6.68629 106 4 108.686 4 112V128C4 131.314 6.68629 134 10 134H24V106Z" fill="white"/>
<path d="M10 106.5C6.96243 106.5 4.5 108.962 4.5 112V128C4.5 131.038 6.96243 133.5 10 133.5H23.5V106.5H10Z" stroke="#919EAB" stroke-opacity="0.6"/>
<rect width="4" height="18" rx="2" transform="matrix(-1 0 0 1 4 111)" fill="white"/>
<rect x="-0.5" y="0.5" width="3" height="17" rx="1.5" transform="matrix(-1 0 0 1 3 111)" stroke="#919EAB" stroke-opacity="0.6"/>
<rect x="24" y="160" width="42" height="80" rx="3" fill="white"/>
<rect x="24.5" y="160.5" width="41" height="79" rx="2.5" stroke="#919EAB" stroke-opacity="0.6"/>
<rect x="66" y="160" width="42" height="80" rx="3" fill="white"/>
<rect x="66.5" y="160.5" width="41" height="79" rx="2.5" stroke="#919EAB" stroke-opacity="0.6"/>
<path d="M108 186H122C125.314 186 128 188.686 128 192V208C128 211.314 125.314 214 122 214H108V186Z" fill="white"/>
<path d="M122 186.5C125.038 186.5 127.5 188.962 127.5 192V208C127.5 211.038 125.038 213.5 122 213.5H108.5V186.5H122Z" stroke="#919EAB" stroke-opacity="0.6"/>
<rect x="128" y="191" width="4" height="18" rx="2" fill="white"/>
<rect x="128.5" y="191.5" width="3" height="17" rx="1.5" stroke="#919EAB" stroke-opacity="0.6"/>
<path d="M24 186H10C6.68629 186 4 188.686 4 192V208C4 211.314 6.68629 214 10 214H24V186Z" fill="white"/>
<path d="M10 186.5C6.96243 186.5 4.5 188.962 4.5 192V208C4.5 211.038 6.96243 213.5 10 213.5H23.5V186.5H10Z" stroke="#919EAB" stroke-opacity="0.6"/>
<rect width="4" height="18" rx="2" transform="matrix(-1 0 0 1 4 191)" fill="white"/>
<rect x="-0.5" y="0.5" width="3" height="17" rx="1.5" transform="matrix(-1 0 0 1 3 191)" stroke="#919EAB" stroke-opacity="0.6"/>
<rect x="24" y="240" width="42" height="80" rx="3" fill="white"/>
<rect x="24.5" y="240.5" width="41" height="79" rx="2.5" stroke="#919EAB" stroke-opacity="0.6"/>
<rect x="66" y="240" width="42" height="80" rx="3" fill="white"/>
<rect x="66.5" y="240.5" width="41" height="79" rx="2.5" stroke="#919EAB" stroke-opacity="0.6"/>
<path d="M108 266H122C125.314 266 128 268.686 128 272V288C128 291.314 125.314 294 122 294H108V266Z" fill="white"/>
<path d="M122 266.5C125.038 266.5 127.5 268.962 127.5 272V288C127.5 291.038 125.038 293.5 122 293.5H108.5V266.5H122Z" stroke="#919EAB" stroke-opacity="0.6"/>
<rect x="128" y="271" width="4" height="18" rx="2" fill="white"/>
<rect x="128.5" y="271.5" width="3" height="17" rx="1.5" stroke="#919EAB" stroke-opacity="0.6"/>
<path d="M24 266H10C6.68629 266 4 268.686 4 272V288C4 291.314 6.68629 294 10 294H24V266Z" fill="white"/>
<path d="M10 266.5C6.96243 266.5 4.5 268.962 4.5 272V288C4.5 291.038 6.96243 293.5 10 293.5H23.5V266.5H10Z" stroke="#919EAB" stroke-opacity="0.6"/>
<rect width="4" height="18" rx="2" transform="matrix(-1 0 0 1 4 271)" fill="white"/>
<rect x="-0.5" y="0.5" width="3" height="17" rx="1.5" transform="matrix(-1 0 0 1 3 271)" stroke="#919EAB" stroke-opacity="0.6"/>
</g>
<defs>
<filter id="filter0_d_1707_7584" x="0" y="0" width="132" height="322" filterUnits="userSpaceOnUse" color-interpolation-filters="sRGB">
<feFlood flood-opacity="0" result="BackgroundImageFix"/>
<feColorMatrix in="SourceAlpha" type="matrix" values="0 0 0 0 0 0 0 0 0 0 0 0 0 0 0 0 0 0 127 0" result="hardAlpha"/>
<feOffset dy="2"/>
<feComposite in2="hardAlpha" operator="out"/>
<feColorMatrix type="matrix" values="0 0 0 0 0.129412 0 0 0 0 0.168627 0 0 0 0 0.211765 0 0 0 0.15 0"/>
<feBlend mode="normal" in2="BackgroundImageFix" result="effect1_dropShadow_1707_7584"/>
<feBlend mode="normal" in="SourceGraphic" in2="effect1_dropShadow_1707_7584" result="shape"/>
</filter>
</defs>
</svg>
